<svg width="360" height="640" viewBox="0 0 360 640" fill="none" xmlns="http://www.w3.org/2000/svg">
<g filter="url(#filter0_d_192_96)">
<path d="M398.003 43.0936C413.457 76.0584 400.655 81.1222 407.26 168.92C408.792 189.217 410.152 198.176 402.801 205.3C385.73 221.778 337.67 212.965 308.17 191.287C301.297 186.24 279.847 170.484 278.697 149.928C277.547 129.372 297.476 122.715 292.611 110.293C287.048 96.0777 255.514 90.9433 220.217 85.4924C168.968 77.5837 150.753 82.7802 138.973 69.707C127.386 56.8213 131.569 36.8397 134.2 24.2944C136.424 13.6642 141.09 2.18808 150.39 -10.1378C157.789 -19.9309 202.07 -78.5026 264.913 -70.4186C302.444 -65.592 328.702 -39.321 356.493 -11.5184C370.441 2.41553 386.454 18.3862 398.003 43.0936Z" fill="#F2C438" stroke="#F2C438" stroke-miterlimit="10"/>
</g>
<g filter="url(#filter1_d_192_96)">
<path d="M65.6496 365.505C72.8703 391.546 85.6556 394.61 81.8615 410.368C71.2894 454.385 -44.7408 498.377 -80.5302 459.969C-104.902 433.812 -83.9734 378.118 -50.324 288.56C-31.993 239.795 15.9928 112.103 55.4652 113.824C78.64 114.84 93.7128 160.222 95.8719 194.092C100.387 265.286 49.2151 305.969 65.6496 365.505Z" fill="#592507" stroke="#592507" stroke-width="1.22" stroke-miterlimit="10"/>
</g>
<g filter="url(#filter2_d_192_96)">
<path d="M132.406 734.412C107.762 729.646 100.668 702.743 97.1524 689.417C80.0217 624.487 113.049 517.376 145.692 497.682C160.794 488.574 162.329 506.247 191.607 507.934C228.012 509.997 283.133 486.013 310.466 445.027C335.43 407.565 319.21 382.832 339.659 358.348C371.958 319.874 459.193 326.007 458.709 375.248C458.362 413.814 404.438 443.959 376.883 519.65C344.387 608.838 388.03 653.176 361.959 684.306C335.887 715.436 298.823 662.256 210.931 703.665C178.354 719.019 156.439 739.06 132.406 734.412Z" fill="#D98E32"/>
<path d="M132.406 734.412C107.762 729.646 100.668 702.743 97.1524 689.417C80.0217 624.487 113.049 517.376 145.692 497.682C160.794 488.574 162.329 506.247 191.607 507.934C228.012 509.997 283.133 486.013 310.466 445.027C335.43 407.565 319.21 382.832 339.659 358.348C371.958 319.874 459.193 326.007 458.709 375.248C458.362 413.814 404.438 443.959 376.883 519.65C344.387 608.838 388.03 653.176 361.959 684.306C335.887 715.436 298.823 662.256 210.931 703.665C178.354 719.019 156.439 739.06 132.406 734.412Z" stroke="#D98E32" stroke-width="1.22" stroke-miterlimit="10"/>
</g>
<g clip-path="url(#clip0_192_96)">
<path d="M-26.9326 672.586C-32.2108 641.72 19.8534 548.01 45.4723 543.629C96.1597 534.961 -22.8277 696.59 -26.9326 672.586Z" fill="#A66329" stroke="#A66329" stroke-miterlimit="10"/>
</g>
<g clip-path="url(#clip1_192_96)" filter="url(#filter3_i_192_96)">
<path d="M98.1938 80.2691C75.4115 75.3845 26.4383 7.10041 31.0252 -14.2934C40.1005 -56.6214 115.911 84.0677 98.1938 80.2691Z" fill="#D98E32" stroke="#D98E32" stroke-miterlimit="10"/>
</g>
<g filter="url(#filter4_i_192_96)">
<g clip-path="url(#clip2_192_96)">
<path d="M58.1359 110.672C27.5177 104.108 -40.1484 20.9596 -34.6997 -4.4536C-23.9194 -54.7341 81.9471 115.778 58.1359 110.672Z" fill="#D98E32" stroke="#D98E32" stroke-miterlimit="10"/>
</g>
</g>
<g filter="url(#filter5_i_192_96)">
<path d="M396.6 344.669C373.818 339.784 324.845 271.5 329.432 250.107C338.507 207.778 414.317 348.468 396.6 344.669Z" fill="#592507" stroke="#592507" stroke-miterlimit="10"/>
</g>
<path d="M172.031 254.026C169.837 255.515 165.597 255.078 162.81 253.39C160.816 252.136 159.336 250.205 158.639 247.948C157.166 242.983 161.06 240.073 159.291 236.856C157.967 234.413 153.974 232.814 152.046 233.876C148.943 235.674 153.43 243.271 152.432 255.644C151.967 261.494 151.246 270.54 144.801 273.877C140.393 276.181 133.494 275.764 130.964 272.407C127.93 268.435 133.633 263.47 136.667 250.629C140.176 235.793 135.432 230.341 140.848 224.452C145.622 219.259 154.685 217.729 161.268 220.063C176.183 225.346 178.13 249.825 172.031 254.026Z" fill="white"/>
<path d="M197.136 262.298C195.901 264.542 189.368 264.463 188.784 264.453C187.893 264.451 187.003 264.494 186.116 264.582C184.989 264.671 184.426 264.721 184.386 264.85C184.208 265.486 188.606 268.673 192.372 267.641C194.003 267.194 194.853 266.141 195.97 266.578C196.458 266.824 196.867 267.204 197.15 267.673C197.433 268.142 197.579 268.681 197.571 269.23C197.413 272.586 189.279 275.734 182.123 275.734C178.673 275.734 174.987 275.734 172.674 273.083C169.709 269.647 170.984 264.056 172.535 261.007C174.433 257.293 177.616 255.575 179.592 254.502C182.093 253.152 185.345 251.394 189.051 252.248C194.507 253.509 198.461 259.905 197.136 262.298Z" fill="white"/>
<path d="M225.236 256.856C225.919 256.711 226.628 256.744 227.296 256.95C227.963 257.157 228.567 257.531 229.051 258.038C231.265 260.62 228.695 266.975 225.157 270.55C219.691 276.151 211.853 275.287 210.904 275.168C209.007 274.93 204.579 274.364 201.831 271.007C199.083 267.651 200.101 264.294 200.566 255.635C201.445 239.169 199.113 233.032 203.106 230.51C204.875 229.388 207.583 229.159 209.036 230.341C212.15 232.943 207.85 241.364 210.311 242.893C212.209 244.075 215.51 239.597 218.426 240.907C220.343 241.771 221.539 244.88 220.749 247.054C219.523 250.391 214.482 248.951 211.26 252.755C208.038 256.558 208.147 264.115 211.418 266.201C213.227 267.353 215.896 266.807 217.625 265.883C222.142 263.45 221.589 257.65 225.236 256.856Z" fill="white"/>
<path d="M244.064 322.09C243.61 323.292 242.345 326.619 243.234 329.429C245.033 335.159 256.083 335.745 257.645 332.061C258.05 331.068 257.447 330.581 257.575 328.357C257.753 325.378 259.098 321.644 261.292 320.412C264.069 318.893 266.076 322.627 268.29 321.286C271.185 319.518 271.956 310.63 269.327 308.128C267.123 306.033 264.385 310.203 259.987 308.654C254.818 306.837 253.266 299.26 251.487 299.995C249.51 300.809 252.475 309.657 248.354 315.884C246.842 318.287 245.329 318.793 244.064 322.09Z" fill="white"/>
<path d="M252.199 334.454H251.625C248.146 334.305 244.183 332.696 243.155 329.489C242.266 326.639 243.57 323.223 244.005 322.1C244.572 320.57 245.466 319.184 246.624 318.039C247.239 317.399 247.795 316.704 248.285 315.963C250.687 312.269 250.657 307.701 250.637 304.364C250.637 302.031 250.637 300.392 251.457 299.995C252.278 299.598 252.989 300.859 253.988 302.507C255.282 304.662 257.062 307.622 260.007 308.654C262.231 309.439 263.96 308.754 265.552 308.148C267.143 307.542 268.27 307.085 269.377 308.148C270.662 309.359 271.255 312.229 270.919 315.467C270.602 318.347 269.614 320.631 268.329 321.425C267.232 322.09 266.194 321.564 265.107 320.998C264.02 320.432 262.735 319.787 261.331 320.551C259.177 321.733 257.823 325.517 257.655 328.416C257.603 329.163 257.643 329.914 257.773 330.651C257.905 331.142 257.88 331.663 257.704 332.14C257.111 333.55 254.976 334.454 252.199 334.454ZM251.734 300.054C251.662 300.04 251.589 300.04 251.517 300.054C250.766 300.372 250.775 302.04 250.785 304.285C250.785 307.641 250.785 312.229 248.413 315.963C247.913 316.711 247.347 317.412 246.723 318.059C245.587 319.181 244.704 320.536 244.134 322.031C243.709 323.143 242.414 326.52 243.303 329.32C244.292 332.498 248.245 334.067 251.635 334.216H252.199C254.917 334.216 256.992 333.352 257.576 331.942C257.734 331.491 257.755 331.004 257.635 330.541C257.496 329.792 257.452 329.028 257.506 328.267C257.684 325.288 259.058 321.495 261.262 320.323C262.735 319.518 263.98 320.154 265.216 320.77C266.263 321.316 267.262 321.822 268.29 321.197C269.535 320.442 270.503 318.218 270.81 315.357C271.146 312.17 270.563 309.349 269.317 308.158C268.27 307.165 267.113 307.622 265.651 308.158C263.903 309.044 261.884 309.225 260.007 308.664C257.042 307.612 255.213 304.632 253.899 302.458C252.999 301.117 252.357 300.054 251.734 300.054Z" fill="white"/>
<path d="M176.874 320.233C175.817 322.666 170.282 322.587 169.778 322.577C169.024 322.574 168.272 322.62 167.524 322.716C166.536 322.815 166.081 322.865 166.052 323.004C165.894 323.699 169.63 327.145 172.832 325.983C174.216 325.497 174.937 324.355 175.886 324.831C176.331 325.161 176.688 325.597 176.925 326.1C177.161 326.602 177.269 327.156 177.24 327.711C177.112 331.346 170.203 334.772 164.134 334.772C161.169 334.772 158.075 334.772 156.109 331.892C153.568 328.158 154.675 322.09 156 318.784C157.197 315.849 159.296 313.376 161.989 311.723C164.124 310.303 166.872 308.416 170.055 309.33C174.641 310.7 177.962 317.632 176.874 320.233Z" fill="white"/>
<path d="M238.322 320.015C237.264 322.448 231.72 322.369 231.225 322.359C230.469 322.355 229.713 322.402 228.962 322.498C227.974 322.597 227.529 322.647 227.499 322.786C227.341 323.471 231.077 326.927 234.279 325.765C235.653 325.278 236.375 324.136 237.324 324.613C237.771 324.941 238.129 325.376 238.366 325.879C238.603 326.383 238.71 326.937 238.678 327.493C238.559 331.127 231.65 334.553 225.572 334.553C222.607 334.553 219.513 334.553 217.556 331.674C215.016 327.94 216.123 321.872 217.437 318.565C218.644 315.649 220.741 313.194 223.427 311.554C225.552 310.084 228.31 308.178 231.453 309.101C236.088 310.482 239.439 317.413 238.322 320.015Z" fill="white"/>
<path d="M149.753 320.452C148.696 322.885 143.161 322.805 142.657 322.796C141.903 322.792 141.151 322.839 140.403 322.935C139.415 323.034 138.96 323.084 138.931 323.233C138.772 323.918 142.508 327.374 145.711 326.212C147.095 325.725 147.806 324.593 148.765 325.06C149.21 325.39 149.567 325.825 149.804 326.328C150.04 326.831 150.148 327.384 150.119 327.94C149.991 331.574 143.082 335 137.013 335C134.048 335 130.954 335 128.987 332.12C126.447 328.387 127.554 322.319 128.879 319.012C130.061 316.086 132.137 313.614 134.809 311.951C136.934 310.482 139.692 308.575 142.835 309.508C147.52 310.918 150.87 317.85 149.753 320.452Z" fill="white"/>
<path d="M211.25 310.571C212.11 322.15 215.915 327.741 213.148 331.515C212.292 332.616 211.119 333.425 209.789 333.832C208.459 334.239 207.037 334.224 205.715 333.789C203.739 332.974 203.402 331.237 201.426 330.889C199.261 330.512 198.461 332.389 195.802 333.372C194.133 333.952 192.337 334.061 190.61 333.689C188.884 333.316 187.292 332.474 186.007 331.256C183.772 329.044 182.333 326.148 181.915 323.024C180.927 316.41 184.515 310.491 187.737 307.661C191.69 304.195 193.351 306.906 196.78 303.977C202.968 298.694 200.279 287.522 206.19 284.116C206.526 283.917 209.53 282.239 211.478 283.907C214.917 286.827 210.163 295.923 211.25 310.571Z" fill="white"/>
<path d="M110.643 301.345C113.292 303.004 116.109 299.161 119.005 300.749C122.158 302.458 123.275 309.409 121.11 311.534C118.797 313.848 113.895 309.439 111.918 311.465C108.904 314.553 118.639 326.549 115.101 332.041C112.798 335.606 105.375 335.705 102.469 332.309C101.224 330.859 101.016 328.545 100.651 323.977C100.058 316.549 101.105 313.818 99.5634 312.656C97.478 311.087 94.2855 315.05 91.3797 313.252C89.6105 312.16 88.9186 309.518 89.0075 307.492C89.0278 306.383 89.3209 305.295 89.8606 304.327C90.4003 303.358 91.17 302.539 92.1012 301.941C94.3547 300.72 95.946 302.458 97.1913 301.345C98.6541 300.025 96.8355 297.244 97.1913 291.017C97.5471 284.791 99.7413 282.249 100.384 281.613C100.78 281.246 101.207 280.914 101.659 280.62C104.288 278.773 107.253 278.147 111.365 277.959C117.898 277.661 121.16 277.512 124.273 279.746C125.927 280.9 127.245 282.477 128.088 284.314C129.422 287.293 130.183 292.428 127.544 294.841C125.568 296.668 122.296 296.281 120.27 295.238C117.71 293.917 117.779 291.911 115.18 290.868C113.549 290.213 110.959 289.985 109.437 291.514C107.105 293.848 108.093 299.737 110.643 301.345Z" fill="white"/>
<g clip-path="url(#clip3_192_96)" filter="url(#filter6_i_192_96)">
<path d="M223.793 155.332C223.738 155.098 223.566 154.891 223.422 154.801L204.927 143.315C206.602 142.553 208.421 141.88 209.799 141.435C214.284 140.016 218.391 138.562 216.959 132.968C215.083 125.996 205.338 116.54 196.059 118.586L195.824 118.64C189.969 120.009 190.431 124.1 190.831 128.453C190.98 130.148 191.184 132.076 191.154 134.06C191.208 134.294 191.119 134.438 191.146 134.555L191.173 134.673L172.128 122.944L171.261 122.406L170.972 122.227C170.539 121.957 170.07 122.067 169.801 122.5L157.866 141.717L157.839 141.6C156.932 139.836 156.115 137.927 155.615 136.315C153.989 132.002 152.508 127.778 146.851 129.471C145.356 129.944 143.709 130.823 142.117 131.936C140.793 132.616 139.669 133.62 138.834 134.803C134.655 139.115 131.733 145.109 133.219 150.937C134.732 156.883 138.796 156.303 143.212 155.642C144.879 155.375 146.924 155.144 148.908 155.175L149.521 155.155L137.199 174.833C137.137 175.095 137.075 175.356 137.129 175.59C137.184 175.825 137.356 176.031 137.5 176.121L150.504 184.197C150.793 184.377 151.172 184.412 151.379 184.24C151.703 184.041 151.765 183.779 151.8 183.4C151.42 179.66 154.707 178.398 159.895 176.815C162.417 175.978 165.29 175.06 167.909 173.583C171.707 171.336 174.951 170.949 177.497 172.33C179.465 173.352 181.754 176.275 181.874 183.658C181.898 185.875 182.157 188.038 182.478 189.939C183.01 193.273 183.316 196.166 182.005 197.955C181.322 198.732 180.467 199.302 179.062 199.631C178.945 199.658 178.827 199.685 178.476 199.768C178.125 199.85 177.828 200.166 177.766 200.428C177.703 200.689 177.813 201.158 178.102 201.337L189.806 208.606C189.95 208.696 190.212 208.758 190.446 208.703C190.68 208.648 190.887 208.477 190.977 208.332L202.912 189.115C203.963 190.969 204.69 193.022 205.19 194.634C206.699 198.975 208.27 203.054 213.63 201.678L213.864 201.623C220.926 199.602 230.093 189.678 227.813 180.453C226.389 174.363 222.208 174.97 217.882 175.487C216.216 175.753 214.17 175.985 212.187 175.954C211.808 175.919 211.574 175.974 211.195 175.939L223.489 156.144C223.785 155.828 223.848 155.566 223.793 155.332ZM164.795 169.247C164.242 171.105 163.055 172.371 161.443 172.871C161.326 172.898 161.209 172.926 161.092 172.953C158.047 173.665 154.759 171.222 153.504 167.44C152.949 165.593 152.862 163.637 153.443 161.896C154.024 160.154 155.21 158.889 156.705 158.416C158.201 157.943 159.887 158.29 161.477 159.277C162.949 160.291 164.062 161.884 164.645 163.847C165.227 165.811 165.287 167.65 164.795 169.247ZM175.031 167.595C174.446 167.732 173.833 167.752 173.193 167.654C171.533 167.425 170.034 166.293 169.127 164.529C168.392 162.971 168.072 161.07 168.336 159.032C168.928 154.694 172.038 151.62 175.357 152.08C178.676 152.539 180.805 156.364 180.213 160.702C179.809 164.255 177.725 166.965 175.031 167.595ZM199.16 188.386C198.001 189.769 196.291 190.91 194.327 191.492C194.21 191.52 193.976 191.574 193.859 191.602C192.102 192.012 190.353 191.927 188.756 191.436C186.87 190.765 185.577 189.462 185.077 187.849C184.577 186.237 185.041 184.523 186.172 183.023C187.331 181.641 189.041 180.5 191.004 179.918C192.851 179.363 194.834 179.393 196.575 179.974C198.461 180.645 199.754 181.948 200.255 183.56C200.755 185.173 200.408 186.859 199.16 188.386ZM197.622 170.713C197.014 172.337 195.909 173.954 194.317 175.067C193.255 175.81 192.049 176.462 190.761 176.763C190.175 176.9 189.707 177.01 189.094 177.029C187.138 177.116 185.486 176.391 184.4 174.915C182.4 172.171 183.66 168.048 187.258 165.478C188.851 164.365 190.67 163.692 192.509 163.633C194.464 163.546 196.116 164.272 197.202 165.747C197.999 167.043 198.293 168.827 197.622 170.713Z" fill="white"/>
</g>
<defs>
<filter id="filter0_d_192_96" x="126.752" y="-71.6821" width="286.217" height="294.026" filterUnits="userSpaceOnUse" color-interpolation-filters="sRGB">
<feFlood flood-opacity="0" result="BackgroundImageFix"/>
<feColorMatrix in="SourceAlpha" type="matrix" values="0 0 0 0 0 0 0 0 0 0 0 0 0 0 0 0 0 0 127 0" result="hardAlpha"/>
<feOffset dy="4"/>
<feGaussianBlur stdDeviation="2"/>
<feComposite in2="hardAlpha" operator="out"/>
<feColorMatrix type="matrix" values="0 0 0 0 0 0 0 0 0 0 0 0 0 0 0 0 0 0 0.25 0"/>
<feBlend mode="normal" in2="BackgroundImageFix" result="effect1_dropShadow_192_96"/>
<feBlend mode="normal" in="SourceGraphic" in2="effect1_dropShadow_192_96" result="shape"/>
</filter>
<filter id="filter1_d_192_96" x="-91.7234" y="112.196" width="196.489" height="368.094" filterUnits="userSpaceOnUse" color-interpolation-filters="sRGB">
<feFlood flood-opacity="0" result="BackgroundImageFix"/>
<feColorMatrix in="SourceAlpha" type="matrix" values="0 0 0 0 0 0 0 0 0 0 0 0 0 0 0 0 0 0 127 0" result="hardAlpha"/>
<feOffset dx="5" dy="2"/>
<feGaussianBlur stdDeviation="1.5"/>
<feComposite in2="hardAlpha" operator="out"/>
<feColorMatrix type="matrix" values="0 0 0 0 0 0 0 0 0 0 0 0 0 0 0 0 0 0 0.25 0"/>
<feBlend mode="normal" in2="BackgroundImageFix" result="effect1_dropShadow_192_96"/>
<feBlend mode="normal" in="SourceGraphic" in2="effect1_dropShadow_192_96" result="shape"/>
</filter>
<filter id="filter2_d_192_96" x="91.8632" y="326.729" width="373.458" height="408.976" filterUnits="userSpaceOnUse" color-interpolation-filters="sRGB">
<feFlood flood-opacity="0" result="BackgroundImageFix"/>
<feColorMatrix in="SourceAlpha" type="matrix" values="0 0 0 0 0 0 0 0 0 0 0 0 0 0 0 0 0 0 127 0" result="hardAlpha"/>
<feOffset dx="4" dy="-4"/>
<feGaussianBlur stdDeviation="1"/>
<feComposite in2="hardAlpha" operator="out"/>
<feColorMatrix type="matrix" values="0 0 0 0 0 0 0 0 0 0 0 0 0 0 0 0 0 0 0.25 0"/>
<feBlend mode="normal" in2="BackgroundImageFix" result="effect1_dropShadow_192_96"/>
<feBlend mode="normal" in="SourceGraphic" in2="effect1_dropShadow_192_96" result="shape"/>
</filter>
<filter id="filter3_i_192_96" x="14" y="-24" width="105.275" height="109.314" filterUnits="userSpaceOnUse" color-interpolation-filters="sRGB">
<feFlood flood-opacity="0" result="BackgroundImageFix"/>
<feBlend mode="normal" in="SourceGraphic" in2="BackgroundImageFix" result="shape"/>
<feColorMatrix in="SourceAlpha" type="matrix" values="0 0 0 0 0 0 0 0 0 0 0 0 0 0 0 0 0 0 127 0" result="hardAlpha"/>
<feOffset dy="4"/>
<feGaussianBlur stdDeviation="2"/>
<feComposite in2="hardAlpha" operator="arithmetic" k2="-1" k3="1"/>
<feColorMatrix type="matrix" values="0 0 0 0 0 0 0 0 0 0 0 0 0 0 0 0 0 0 0.25 0"/>
<feBlend mode="normal" in2="shape" result="effect1_innerShadow_192_96"/>
</filter>
<filter id="filter4_i_192_96" x="-54.9999" y="-16.0002" width="138.582" height="132" filterUnits="userSpaceOnUse" color-interpolation-filters="sRGB">
<feFlood flood-opacity="0" result="BackgroundImageFix"/>
<feBlend mode="normal" in="SourceGraphic" in2="BackgroundImageFix" result="shape"/>
<feColorMatrix in="SourceAlpha" type="matrix" values="0 0 0 0 0 0 0 0 0 0 0 0 0 0 0 0 0 0 127 0" result="hardAlpha"/>
<feOffset dy="4"/>
<feGaussianBlur stdDeviation="2"/>
<feComposite in2="hardAlpha" operator="arithmetic" k2="-1" k3="1"/>
<feColorMatrix type="matrix" values="0 0 0 0 0 0 0 0 0 0 0 0 0 0 0 0 0 0 0.25 0"/>
<feBlend mode="normal" in2="shape" result="effect1_innerShadow_192_96"/>
</filter>
<filter id="filter5_i_192_96" x="328.63" y="241.658" width="71.1431" height="107.587" filterUnits="userSpaceOnUse" color-interpolation-filters="sRGB">
<feFlood flood-opacity="0" result="BackgroundImageFix"/>
<feBlend mode="normal" in="SourceGraphic" in2="BackgroundImageFix" result="shape"/>
<feColorMatrix in="SourceAlpha" type="matrix" values="0 0 0 0 0 0 0 0 0 0 0 0 0 0 0 0 0 0 127 0" result="hardAlpha"/>
<feOffset dy="4"/>
<feGaussianBlur stdDeviation="2"/>
<feComposite in2="hardAlpha" operator="arithmetic" k2="-1" k3="1"/>
<feColorMatrix type="matrix" values="0 0 0 0 0 0 0 0 0 0 0 0 0 0 0 0 0 0 0.25 0"/>
<feBlend mode="normal" in2="shape" result="effect1_innerShadow_192_96"/>
</filter>
<filter id="filter6_i_192_96" x="127" y="112" width="106.922" height="110.922" filterUnits="userSpaceOnUse" color-interpolation-filters="sRGB">
<feFlood flood-opacity="0" result="BackgroundImageFix"/>
<feBlend mode="normal" in="SourceGraphic" in2="BackgroundImageFix" result="shape"/>
<feColorMatrix in="SourceAlpha" type="matrix" values="0 0 0 0 0 0 0 0 0 0 0 0 0 0 0 0 0 0 127 0" result="hardAlpha"/>
<feOffset dy="4"/>
<feGaussianBlur stdDeviation="2"/>
<feComposite in2="hardAlpha" operator="arithmetic" k2="-1" k3="1"/>
<feColorMatrix type="matrix" values="0 0 0 0 0 0 0 0 0 0 0 0 0 0 0 0 0 0 0.25 0"/>
<feBlend mode="normal" in2="shape" result="effect1_innerShadow_192_96"/>
</filter>
<clipPath id="clip0_192_96">
<rect width="105.365" height="119.141" fill="white" transform="translate(-47 558.76) rotate(-9.70405)"/>
</clipPath>
<clipPath id="clip1_192_96">
<rect width="88.7" height="88.65" fill="white" transform="translate(14 62.729) rotate(-77.8988)"/>
</clipPath>
<clipPath id="clip2_192_96">
<rect width="105.365" height="119.141" fill="white" transform="translate(-54.9999 87.0231) rotate(-77.8988)"/>
</clipPath>
<clipPath id="clip3_192_96">
<rect width="89" height="89" fill="white" transform="translate(127 132.259) rotate(-13.1573)"/>
</clipPath>
</defs>
</svg>
