<svg width="360" height="640" viewBox="0 0 360 640" fill="none" xmlns="http://www.w3.org/2000/svg">
<g filter="url(#filter0_d_136_133)">
<path d="M398.003 43.0936C413.457 76.0584 400.655 81.1222 407.26 168.92C408.792 189.217 410.152 198.176 402.801 205.3C385.73 221.778 337.67 212.965 308.17 191.287C301.297 186.24 279.847 170.484 278.697 149.928C277.547 129.372 297.476 122.715 292.611 110.293C287.048 96.0777 255.514 90.9433 220.217 85.4924C168.968 77.5837 150.753 82.7802 138.973 69.707C127.386 56.8213 131.569 36.8397 134.2 24.2944C136.424 13.6642 141.09 2.18808 150.39 -10.1378C157.789 -19.9309 202.07 -78.5026 264.913 -70.4186C302.444 -65.592 328.702 -39.321 356.493 -11.5184C370.441 2.41553 386.454 18.3862 398.003 43.0936Z" fill="#F2C438" stroke="#F2C438" stroke-miterlimit="10"/>
</g>
<g filter="url(#filter1_d_136_133)">
<path d="M65.6496 365.505C72.8703 391.546 85.6556 394.61 81.8615 410.368C71.2894 454.385 -44.7408 498.377 -80.5302 459.969C-104.902 433.812 -83.9734 378.118 -50.324 288.56C-31.993 239.795 15.9928 112.103 55.4652 113.824C78.64 114.84 93.7128 160.222 95.8719 194.092C100.387 265.286 49.2151 305.969 65.6496 365.505Z" fill="#592507" stroke="#592507" stroke-width="1.22" stroke-miterlimit="10"/>
</g>
<g filter="url(#filter2_d_136_133)">
<path d="M132.406 734.412C107.762 729.646 100.668 702.743 97.1524 689.417C80.0217 624.487 113.049 517.376 145.692 497.682C160.794 488.574 162.329 506.247 191.607 507.934C228.012 509.997 283.133 486.013 310.466 445.027C335.43 407.565 319.21 382.832 339.659 358.348C371.958 319.874 459.193 326.007 458.709 375.248C458.362 413.814 404.438 443.959 376.883 519.65C344.387 608.838 388.03 653.176 361.959 684.306C335.887 715.436 298.823 662.256 210.931 703.665C178.354 719.019 156.439 739.06 132.406 734.412Z" fill="#D98E32"/>
<path d="M132.406 734.412C107.762 729.646 100.668 702.743 97.1524 689.417C80.0217 624.487 113.049 517.376 145.692 497.682C160.794 488.574 162.329 506.247 191.607 507.934C228.012 509.997 283.133 486.013 310.466 445.027C335.43 407.565 319.21 382.832 339.659 358.348C371.958 319.874 459.193 326.007 458.709 375.248C458.362 413.814 404.438 443.959 376.883 519.65C344.387 608.838 388.03 653.176 361.959 684.306C335.887 715.436 298.823 662.256 210.931 703.665C178.354 719.019 156.439 739.06 132.406 734.412Z" stroke="#D98E32" stroke-width="1.22" stroke-miterlimit="10"/>
</g>
<g clip-path="url(#clip0_136_133)">
<path d="M-26.9326 672.586C-32.2108 641.72 19.8534 548.01 45.4723 543.629C96.1597 534.961 -22.8277 696.59 -26.9326 672.586Z" fill="#A66329" stroke="#A66329" stroke-miterlimit="10"/>
</g>
<g clip-path="url(#clip1_136_133)" filter="url(#filter3_i_136_133)">
<path d="M98.1938 80.2691C75.4115 75.3845 26.4383 7.10041 31.0252 -14.2934C40.1005 -56.6214 115.911 84.0677 98.1938 80.2691Z" fill="#D98E32" stroke="#D98E32" stroke-miterlimit="10"/>
</g>
<g filter="url(#filter4_i_136_133)">
<g clip-path="url(#clip2_136_133)">
<path d="M58.1359 110.672C27.5177 104.108 -40.1484 20.9596 -34.6997 -4.4536C-23.9194 -54.7341 81.9471 115.778 58.1359 110.672Z" fill="#D98E32" stroke="#D98E32" stroke-miterlimit="10"/>
</g>
</g>
<g filter="url(#filter5_i_136_133)">
<path d="M396.6 344.669C373.818 339.784 324.845 271.5 329.432 250.107C338.507 207.778 414.317 348.468 396.6 344.669Z" fill="#592507" stroke="#592507" stroke-miterlimit="10"/>
</g>
<defs>
<filter id="filter0_d_136_133" x="126.752" y="-71.6821" width="286.217" height="294.026" filterUnits="userSpaceOnUse" color-interpolation-filters="sRGB">
<feFlood flood-opacity="0" result="BackgroundImageFix"/>
<feColorMatrix in="SourceAlpha" type="matrix" values="0 0 0 0 0 0 0 0 0 0 0 0 0 0 0 0 0 0 127 0" result="hardAlpha"/>
<feOffset dy="4"/>
<feGaussianBlur stdDeviation="2"/>
<feComposite in2="hardAlpha" operator="out"/>
<feColorMatrix type="matrix" values="0 0 0 0 0 0 0 0 0 0 0 0 0 0 0 0 0 0 0.25 0"/>
<feBlend mode="normal" in2="BackgroundImageFix" result="effect1_dropShadow_136_133"/>
<feBlend mode="normal" in="SourceGraphic" in2="effect1_dropShadow_136_133" result="shape"/>
</filter>
<filter id="filter1_d_136_133" x="-91.7234" y="112.196" width="196.489" height="368.094" filterUnits="userSpaceOnUse" color-interpolation-filters="sRGB">
<feFlood flood-opacity="0" result="BackgroundImageFix"/>
<feColorMatrix in="SourceAlpha" type="matrix" values="0 0 0 0 0 0 0 0 0 0 0 0 0 0 0 0 0 0 127 0" result="hardAlpha"/>
<feOffset dx="5" dy="2"/>
<feGaussianBlur stdDeviation="1.5"/>
<feComposite in2="hardAlpha" operator="out"/>
<feColorMatrix type="matrix" values="0 0 0 0 0 0 0 0 0 0 0 0 0 0 0 0 0 0 0.25 0"/>
<feBlend mode="normal" in2="BackgroundImageFix" result="effect1_dropShadow_136_133"/>
<feBlend mode="normal" in="SourceGraphic" in2="effect1_dropShadow_136_133" result="shape"/>
</filter>
<filter id="filter2_d_136_133" x="91.8632" y="326.729" width="373.458" height="408.976" filterUnits="userSpaceOnUse" color-interpolation-filters="sRGB">
<feFlood flood-opacity="0" result="BackgroundImageFix"/>
<feColorMatrix in="SourceAlpha" type="matrix" values="0 0 0 0 0 0 0 0 0 0 0 0 0 0 0 0 0 0 127 0" result="hardAlpha"/>
<feOffset dx="4" dy="-4"/>
<feGaussianBlur stdDeviation="1"/>
<feComposite in2="hardAlpha" operator="out"/>
<feColorMatrix type="matrix" values="0 0 0 0 0 0 0 0 0 0 0 0 0 0 0 0 0 0 0.25 0"/>
<feBlend mode="normal" in2="BackgroundImageFix" result="effect1_dropShadow_136_133"/>
<feBlend mode="normal" in="SourceGraphic" in2="effect1_dropShadow_136_133" result="shape"/>
</filter>
<filter id="filter3_i_136_133" x="14" y="-24" width="105.275" height="109.314" filterUnits="userSpaceOnUse" color-interpolation-filters="sRGB">
<feFlood flood-opacity="0" result="BackgroundImageFix"/>
<feBlend mode="normal" in="SourceGraphic" in2="BackgroundImageFix" result="shape"/>
<feColorMatrix in="SourceAlpha" type="matrix" values="0 0 0 0 0 0 0 0 0 0 0 0 0 0 0 0 0 0 127 0" result="hardAlpha"/>
<feOffset dy="4"/>
<feGaussianBlur stdDeviation="2"/>
<feComposite in2="hardAlpha" operator="arithmetic" k2="-1" k3="1"/>
<feColorMatrix type="matrix" values="0 0 0 0 0 0 0 0 0 0 0 0 0 0 0 0 0 0 0.25 0"/>
<feBlend mode="normal" in2="shape" result="effect1_innerShadow_136_133"/>
</filter>
<filter id="filter4_i_136_133" x="-54.9999" y="-16.0002" width="138.582" height="132" filterUnits="userSpaceOnUse" color-interpolation-filters="sRGB">
<feFlood flood-opacity="0" result="BackgroundImageFix"/>
<feBlend mode="normal" in="SourceGraphic" in2="BackgroundImageFix" result="shape"/>
<feColorMatrix in="SourceAlpha" type="matrix" values="0 0 0 0 0 0 0 0 0 0 0 0 0 0 0 0 0 0 127 0" result="hardAlpha"/>
<feOffset dy="4"/>
<feGaussianBlur stdDeviation="2"/>
<feComposite in2="hardAlpha" operator="arithmetic" k2="-1" k3="1"/>
<feColorMatrix type="matrix" values="0 0 0 0 0 0 0 0 0 0 0 0 0 0 0 0 0 0 0.25 0"/>
<feBlend mode="normal" in2="shape" result="effect1_innerShadow_136_133"/>
</filter>
<filter id="filter5_i_136_133" x="328.63" y="241.658" width="71.1431" height="107.587" filterUnits="userSpaceOnUse" color-interpolation-filters="sRGB">
<feFlood flood-opacity="0" result="BackgroundImageFix"/>
<feBlend mode="normal" in="SourceGraphic" in2="BackgroundImageFix" result="shape"/>
<feColorMatrix in="SourceAlpha" type="matrix" values="0 0 0 0 0 0 0 0 0 0 0 0 0 0 0 0 0 0 127 0" result="hardAlpha"/>
<feOffset dy="4"/>
<feGaussianBlur stdDeviation="2"/>
<feComposite in2="hardAlpha" operator="arithmetic" k2="-1" k3="1"/>
<feColorMatrix type="matrix" values="0 0 0 0 0 0 0 0 0 0 0 0 0 0 0 0 0 0 0.25 0"/>
<feBlend mode="normal" in2="shape" result="effect1_innerShadow_136_133"/>
</filter>
<clipPath id="clip0_136_133">
<rect width="105.365" height="119.141" fill="white" transform="translate(-47 558.76) rotate(-9.70405)"/>
</clipPath>
<clipPath id="clip1_136_133">
<rect width="88.7" height="88.65" fill="white" transform="translate(14 62.729) rotate(-77.8988)"/>
</clipPath>
<clipPath id="clip2_136_133">
<rect width="105.365" height="119.141" fill="white" transform="translate(-54.9999 87.0231) rotate(-77.8988)"/>
</clipPath>
</defs>
</svg>
