<svg width="183" height="223" viewBox="0 0 183 223" fill="none" xmlns="http://www.w3.org/2000/svg">
<g clip-path="url(#clip0_136_131)" filter="url(#filter0_i_136_131)">
<path d="M134.793 43.3318C134.738 43.0975 134.566 42.8907 134.422 42.801L115.927 31.3147C117.602 30.5527 119.421 29.8804 120.799 29.4348C125.284 28.0158 129.391 26.5618 127.959 20.9677C126.083 13.9957 116.338 4.53993 107.059 6.58556L106.824 6.64031C100.969 8.00913 101.431 12.1005 101.831 16.4534C101.98 18.1478 102.184 20.0763 102.154 22.0596C102.208 22.2939 102.119 22.4384 102.146 22.5555L102.173 22.6726L83.1281 10.9445L82.2611 10.4061L81.9722 10.2266C81.5387 9.95737 81.0702 10.0669 80.801 10.5003L68.8661 29.7174L68.8387 29.6003C67.9322 27.836 67.1155 25.9272 66.6151 24.315C64.9892 20.0016 63.5078 15.7779 57.8514 17.4707C56.3563 17.9437 54.7091 18.8228 53.1167 19.9362C51.7935 20.616 50.6695 21.6198 49.8345 22.8031C45.6549 27.115 42.7331 33.109 44.2191 38.9373C45.7324 44.8827 49.7964 44.3032 54.2117 43.6416C55.8786 43.3755 57.9243 43.1443 59.9076 43.1747L60.5206 43.155L48.1993 62.8329C48.1369 63.0945 48.0745 63.3561 48.1293 63.5904C48.1841 63.8246 48.3559 64.0314 48.5004 64.1212L61.5045 72.1975C61.7934 72.3769 62.1722 72.4119 62.379 72.2401C62.703 72.0408 62.7653 71.7792 62.8003 71.4005C62.4201 67.6605 65.7069 66.3981 70.8948 64.8148C73.4166 63.9783 76.2896 63.0597 78.9087 61.5829C82.7065 59.3364 85.9507 58.9486 88.4968 60.3296C90.4649 61.3517 92.7539 64.275 92.874 71.6577C92.8983 73.8752 93.1569 76.038 93.4778 77.9392C94.0101 81.2731 94.3158 84.166 93.0047 85.9546C92.3218 86.7318 91.467 87.3021 90.0617 87.6307C89.9446 87.658 89.8275 87.6854 89.4761 87.7675C89.1248 87.8497 88.8282 88.166 88.7658 88.4276C88.7035 88.6892 88.813 89.1577 89.102 89.3371L100.806 96.6058C100.95 96.6955 101.212 96.7579 101.446 96.7032C101.68 96.6484 101.887 96.4765 101.977 96.332L113.912 77.1149C114.963 78.969 115.69 81.0223 116.19 82.6345C117.699 86.9753 119.27 91.0544 124.63 89.678L124.864 89.6233C131.926 87.602 141.093 77.6778 138.813 68.4533C137.389 62.3634 133.208 62.9702 128.882 63.4873C127.216 63.7535 125.17 63.9847 123.187 63.9542C122.808 63.9193 122.574 63.974 122.195 63.939L134.489 44.144C134.785 43.8276 134.848 43.566 134.793 43.3318ZM75.7954 57.2466C75.2417 59.1052 74.0554 60.3706 72.4432 60.871C72.3261 60.8984 72.2089 60.9258 72.0918 60.9532C69.0469 61.6649 65.7586 59.2223 64.5039 55.4397C63.9487 53.5932 63.862 51.6373 64.443 49.8958C65.0241 48.1543 66.2104 46.8889 67.7055 46.4159C69.2006 45.9429 70.8873 46.2897 72.4767 47.2768C73.949 48.2913 75.0623 49.8837 75.6448 51.8473C76.2273 53.8108 76.2866 55.6496 75.7954 57.2466ZM86.0313 55.5949C85.4458 55.7318 84.8328 55.7516 84.1925 55.6542C82.5332 55.4246 81.0335 54.293 80.127 52.5287C79.3924 50.9712 79.0715 49.07 79.3362 47.032C79.9278 42.6942 83.0382 39.6204 86.3569 40.0797C89.6756 40.5391 91.8049 44.3643 91.2132 48.702C90.8086 52.2549 88.7249 54.9653 86.0313 55.5949ZM110.16 76.3864C109.001 77.7689 107.291 78.9096 105.327 79.4921C105.21 79.5195 104.976 79.5743 104.859 79.6016C103.102 80.0123 101.353 79.9271 99.7562 79.4358C97.8703 78.7651 96.5775 77.4616 96.0771 75.8494C95.5767 74.2372 96.0406 72.5231 97.1722 71.0235C98.3312 69.6409 100.041 68.5002 102.004 67.9177C103.851 67.3626 105.834 67.393 107.575 67.974C109.461 68.6448 110.754 69.9482 111.255 71.5604C111.755 73.1726 111.408 74.8594 110.16 76.3864ZM108.622 58.713C108.014 60.3373 106.909 61.9541 105.317 63.0674C104.255 63.8097 103.049 64.4621 101.761 64.7633C101.175 64.9002 100.707 65.0097 100.094 65.0294C98.138 65.1161 96.4863 64.3906 95.4003 62.9153C93.4003 60.1715 94.6597 56.0482 98.2582 53.4778C99.8507 52.3645 101.67 51.6923 103.509 51.6329C105.464 51.5463 107.116 52.2718 108.202 53.7471C108.999 55.0429 109.293 56.827 108.622 58.713Z" fill="white"/>
</g>
<path d="M83.0313 142.026C80.8371 143.515 76.597 143.078 73.8098 141.39C71.8159 140.136 70.3359 138.205 69.6388 135.948C68.1661 130.983 72.0603 128.073 70.2911 124.856C68.9667 122.413 64.9736 120.814 63.0463 121.876C59.9428 123.674 64.43 131.271 63.4318 143.644C62.9672 149.494 62.2457 158.54 55.8015 161.877C51.3933 164.181 44.4944 163.764 41.9642 160.407C38.9299 156.435 44.6328 151.47 47.6671 138.629C51.1759 123.793 46.4317 118.341 51.848 112.452C56.6219 107.258 65.6853 105.729 72.2679 108.063C87.1825 113.346 89.1296 137.825 83.0313 142.026Z" fill="white"/>
<path d="M108.136 150.298C106.901 152.542 100.368 152.463 99.7844 152.453C98.8932 152.451 98.0026 152.494 97.1158 152.582C95.989 152.671 95.4256 152.721 95.3861 152.85C95.2082 153.486 99.6065 156.673 103.372 155.641C105.003 155.194 105.853 154.141 106.97 154.578C107.458 154.824 107.867 155.204 108.15 155.673C108.433 156.141 108.579 156.681 108.571 157.23C108.413 160.586 100.279 163.734 93.1227 163.734C89.6733 163.734 85.9866 163.734 83.6738 161.083C80.7087 157.647 81.9837 152.056 83.5354 149.007C85.4331 145.293 88.6157 143.575 90.5925 142.502C93.0931 141.152 96.3448 139.394 100.051 140.248C105.507 141.509 109.461 147.905 108.136 150.298Z" fill="white"/>
<path d="M136.236 144.856C136.919 144.711 137.628 144.744 138.296 144.95C138.963 145.157 139.567 145.531 140.051 146.038C142.265 148.62 139.695 154.975 136.157 158.55C130.691 164.151 122.853 163.287 121.904 163.168C120.007 162.93 115.579 162.364 112.831 159.007C110.083 155.651 111.101 152.294 111.566 143.634C112.445 127.169 110.113 121.032 114.106 118.51C115.875 117.388 118.583 117.159 120.036 118.341C123.15 120.943 118.85 129.364 121.311 130.893C123.209 132.075 126.51 127.596 129.426 128.907C131.343 129.771 132.539 132.88 131.749 135.054C130.523 138.391 125.482 136.951 122.26 140.755C119.038 144.558 119.147 152.115 122.418 154.201C124.227 155.353 126.896 154.806 128.625 153.883C133.142 151.45 132.589 145.65 136.236 144.856Z" fill="white"/>
<path d="M155.064 210.09C154.61 211.292 153.345 214.619 154.234 217.429C156.033 223.159 167.083 223.745 168.645 220.061C169.05 219.068 168.447 218.581 168.575 216.357C168.753 213.377 170.098 209.644 172.292 208.412C175.069 206.893 177.076 210.627 179.29 209.286C182.185 207.518 182.956 198.63 180.327 196.128C178.123 194.033 175.385 198.203 170.987 196.654C165.818 194.837 164.266 187.26 162.487 187.995C160.51 188.809 163.475 197.657 159.354 203.884C157.842 206.287 156.329 206.793 155.064 210.09Z" fill="white"/>
<path d="M163.199 222.454H162.625C159.146 222.305 155.183 220.696 154.155 217.489C153.266 214.639 154.57 211.223 155.005 210.1C155.572 208.57 156.466 207.184 157.624 206.039C158.239 205.399 158.795 204.704 159.285 203.963C161.687 200.269 161.657 195.701 161.637 192.364C161.637 190.031 161.637 188.392 162.457 187.995C163.278 187.598 163.989 188.859 164.988 190.507C166.282 192.662 168.062 195.621 171.007 196.654C173.231 197.439 174.96 196.754 176.552 196.148C178.143 195.542 179.27 195.085 180.377 196.148C181.662 197.359 182.255 200.229 181.919 203.467C181.602 206.347 180.614 208.631 179.329 209.425C178.232 210.09 177.194 209.564 176.107 208.998C175.02 208.432 173.735 207.787 172.331 208.551C170.177 209.733 168.823 213.517 168.655 216.416C168.603 217.163 168.643 217.914 168.773 218.651C168.905 219.142 168.88 219.663 168.704 220.14C168.111 221.55 165.976 222.454 163.199 222.454ZM162.734 188.054C162.662 188.04 162.589 188.04 162.517 188.054C161.766 188.372 161.775 190.04 161.785 192.285C161.785 195.641 161.785 200.229 159.413 203.963C158.913 204.711 158.347 205.412 157.723 206.059C156.587 207.181 155.704 208.536 155.134 210.031C154.709 211.143 153.414 214.52 154.303 217.32C155.292 220.498 159.245 222.067 162.635 222.216H163.199C165.917 222.216 167.992 221.352 168.576 219.942C168.734 219.491 168.755 219.004 168.635 218.541C168.496 217.792 168.452 217.028 168.506 216.267C168.684 213.288 170.058 209.495 172.262 208.323C173.735 207.518 174.98 208.154 176.216 208.77C177.263 209.316 178.262 209.822 179.29 209.197C180.535 208.442 181.503 206.217 181.81 203.357C182.146 200.17 181.563 197.349 180.317 196.158C179.27 195.165 178.113 195.621 176.651 196.158C174.903 197.044 172.884 197.225 171.007 196.664C168.042 195.612 166.213 192.632 164.899 190.458C163.999 189.117 163.357 188.054 162.734 188.054Z" fill="white"/>
<path d="M87.8744 208.233C86.8168 210.666 81.2819 210.587 80.7778 210.577C80.0245 210.574 79.2717 210.62 78.5243 210.716C77.536 210.815 77.0813 210.865 77.0516 211.004C76.8935 211.699 80.6296 215.145 83.8319 213.983C85.2157 213.497 85.9372 212.355 86.886 212.831C87.3314 213.161 87.6883 213.597 87.9247 214.1C88.161 214.602 88.2694 215.156 88.2401 215.711C88.1116 219.346 81.2028 222.772 75.1342 222.772C72.1691 222.772 69.0754 222.772 67.1086 219.892C64.5684 216.158 65.6754 210.09 66.9998 206.784C68.1974 203.849 70.2957 201.376 72.9894 199.723C75.1243 198.303 77.872 196.416 81.0546 197.33C85.6407 198.7 88.9616 205.632 87.8744 208.233Z" fill="white"/>
<path d="M149.322 208.015C148.264 210.448 142.72 210.368 142.225 210.359C141.469 210.355 140.713 210.402 139.962 210.498C138.974 210.597 138.529 210.647 138.499 210.786C138.341 211.471 142.077 214.927 145.279 213.765C146.653 213.278 147.375 212.136 148.324 212.613C148.771 212.941 149.129 213.376 149.366 213.879C149.603 214.382 149.71 214.937 149.678 215.493C149.559 219.127 142.65 222.553 136.572 222.553C133.607 222.553 130.513 222.553 128.556 219.674C126.016 215.94 127.123 209.872 128.437 206.565C129.644 203.649 131.741 201.194 134.427 199.554C136.552 198.084 139.31 196.178 142.453 197.101C147.088 198.482 150.439 205.413 149.322 208.015Z" fill="white"/>
<path d="M60.7533 208.452C59.6957 210.885 54.1608 210.805 53.6567 210.796C52.9034 210.792 52.1506 210.839 51.4032 210.935C50.4149 211.034 49.9602 211.084 49.9305 211.232C49.7724 211.918 53.5085 215.374 56.7108 214.212C58.0946 213.725 58.8062 212.593 59.7649 213.06C60.2103 213.39 60.5672 213.825 60.8036 214.328C61.0399 214.831 61.1483 215.384 61.119 215.94C60.9905 219.574 54.0817 223 48.0131 223C45.048 223 41.9543 223 39.9875 220.12C37.4473 216.386 38.5543 210.319 39.8787 207.012C41.0608 204.086 43.1374 201.614 45.809 199.951C47.934 198.482 50.6916 196.575 53.8346 197.508C58.5196 198.918 61.8702 205.85 60.7533 208.452Z" fill="white"/>
<path d="M122.25 198.571C123.11 210.15 126.915 215.741 124.148 219.515C123.292 220.616 122.119 221.425 120.789 221.832C119.459 222.239 118.037 222.224 116.715 221.789C114.739 220.974 114.402 219.237 112.426 218.889C110.261 218.512 109.461 220.389 106.802 221.372C105.133 221.952 103.337 222.061 101.61 221.688C99.8836 221.316 98.2915 220.474 97.007 219.256C94.772 217.044 93.3326 214.148 92.9151 211.024C91.9267 204.41 95.5145 198.491 98.7367 195.661C102.69 192.195 104.351 194.906 107.78 191.977C113.968 186.694 111.279 175.522 117.19 172.116C117.526 171.917 120.53 170.239 122.478 171.907C125.917 174.827 121.163 183.923 122.25 198.571Z" fill="white"/>
<path d="M21.6432 189.345C24.292 191.004 27.1089 187.161 30.0048 188.749C33.1578 190.458 34.2746 197.409 32.1101 199.534C29.7973 201.848 24.8949 197.439 22.9182 199.465C19.9036 202.553 29.6391 214.549 26.1007 220.041C23.7978 223.606 16.3751 223.705 13.4693 220.309C12.2239 218.859 12.0163 216.545 11.6506 211.977C11.0576 204.549 12.1053 201.818 10.5634 200.656C8.47795 199.087 5.28549 203.05 2.37966 201.252C0.610458 200.16 -0.0814075 197.518 0.00754657 195.492C0.027815 194.383 0.320862 193.295 0.860604 192.326C1.40035 191.358 2.17004 190.539 3.10117 189.941C5.35467 188.72 6.94596 190.458 8.19132 189.345C9.65412 188.025 7.8355 185.244 8.19132 179.017C8.54714 172.791 10.7413 170.249 11.3838 169.613C11.78 169.246 12.2066 168.914 12.6588 168.62C15.2879 166.773 18.253 166.147 22.3647 165.959C28.8979 165.661 32.1595 165.512 35.2729 167.746C36.9274 168.9 38.2447 170.477 39.088 172.314C40.4223 175.293 41.1834 180.428 38.5444 182.841C36.5677 184.668 33.2961 184.281 31.27 183.238C28.7101 181.917 28.7792 179.911 26.1798 178.868C24.549 178.213 21.9594 177.985 20.4373 179.514C18.1048 181.848 19.0931 187.737 21.6432 189.345Z" fill="white"/>
<defs>
<filter id="filter0_i_136_131" x="38" y="-6.10352e-05" width="106.922" height="110.922" filterUnits="userSpaceOnUse" color-interpolation-filters="sRGB">
<feFlood flood-opacity="0" result="BackgroundImageFix"/>
<feBlend mode="normal" in="SourceGraphic" in2="BackgroundImageFix" result="shape"/>
<feColorMatrix in="SourceAlpha" type="matrix" values="0 0 0 0 0 0 0 0 0 0 0 0 0 0 0 0 0 0 127 0" result="hardAlpha"/>
<feOffset dy="4"/>
<feGaussianBlur stdDeviation="2"/>
<feComposite in2="hardAlpha" operator="arithmetic" k2="-1" k3="1"/>
<feColorMatrix type="matrix" values="0 0 0 0 0 0 0 0 0 0 0 0 0 0 0 0 0 0 0.25 0"/>
<feBlend mode="normal" in2="shape" result="effect1_innerShadow_136_131"/>
</filter>
<clipPath id="clip0_136_131">
<rect width="89" height="89" fill="white" transform="translate(38 20.2585) rotate(-13.1573)"/>
</clipPath>
</defs>
</svg>
